<?xml version="1.0" encoding="UTF-8"?><svg id="a" xmlns="http://www.w3.org/2000/svg" width="112" height="50" viewBox="0 0 112 50"><g id="b"><path d="M107.97,4.7c-1.57-.33-2.91.6-3.85,1.78-1.08,1.36-1.79,3.01-2.37,4.63-.77,2.15-1.31,4.38-1.74,6.62-.43,2.3-.7,4.64-.78,6.98-.04,1.16-.04,2.32.03,3.47.03.57.09,1.14.17,1.71.04.27.09.54.14.81.03.13.05.27.09.4.03.03.15-.01.19-.02,1-.21,2.09-.26,3.11-.19,1.1.07,2.11.41,3.07.95.23.13.46.27.68.42.11.08.22.16.33.24.1.07.18.17.29.23.29-.46.55-.93.78-1.42.47-.98.85-2,1.19-3.03.73-2.17,1.28-4.38,1.67-6.64.4-2.29.65-4.61.72-6.93.06-1.97,0-3.99-.47-5.91-.42-1.75-1.32-3.68-3.25-4.09h0ZM102.82,22.09l7.13-6.42c.01,1.31-.03,2.62-.18,3.92-.15,1.31-.38,2.61-.65,3.9-1.74-.39-3.47-.77-5.21-1.16-.36-.08-.73-.16-1.09-.24h0ZM103.93,11.04c.52-.88,1.02-1.76,1.76-2.47.57-.55,1.46-1.14,2.22-.57.65.48,1.01,1.37,1.26,2.11.34.98.53,2.05.62,3.08-2.07-.5-4.15-.95-6.23-1.42.12-.24.24-.48.36-.72ZM101.06,20.26c.23-1.11.4-2.23.67-3.33.13-.55.3-1.09.47-1.63.04-.13.42-1.37.46-1.36.77.17,1.54.35,2.31.52.96.22,1.91.43,2.87.65l-6.88,5.81c.03-.22.06-.44.09-.66h0ZM108.33,26.51c-.17.52-.34,1.04-.54,1.55-.02.05-.23.61-.26.6-.02,0-.03,0-.05-.01-.27-.06-.53-.11-.8-.17-1.06-.22-2.12-.45-3.18-.68-.94-.2-1.88-.4-2.82-.6-.02-.51-.02-1.02-.05-1.53-.02-.52.05-1.04.04-1.56,1.66.38,3.32.76,4.98,1.13.95.22,1.9.44,2.85.65-.07.2-.13.41-.19.62h0Z"/><path d="M17.84,33.2H2.67c-.65,0-1.22-.22-1.69-.67-.45-.45-.68-.97-.68-1.55,0-.65.27-1.48.83-2.54L11.99,7.53h-5.7c-1.45,0-2.46.26-3,.74-.54.48-.83,1.45-.86,2.96H.62v-6.54h13.59c2.05,0,3.09.84,3.09,2.48,0,.48-.15,1.06-.48,1.67L5.61,30.4h12.23v2.8h0Z"/><path d="M32.14,30.88h-2.08c-.89,0-1.63.22-2.2.71-1.13.87-1.69,1.35-1.75,1.39-.71.45-1.54.67-2.46.67-1.48,0-2.73-.48-3.74-1.45-1.01-.96-1.51-2.12-1.51-3.48,0-3.96,3.15-6.12,9.38-6.44v-1.8c0-1.74-.12-2.99-.42-3.77-.27-.77-.77-1.16-1.45-1.16s-1.16.32-1.36,1.03c-.03.03-.15.77-.36,2.16-.21,1.38-1.04,2.12-2.55,2.12l-2.4-2.48c.06-1.51.68-2.74,1.87-3.64,1.22-.93,2.82-1.38,4.84-1.38,2.26,0,3.86.58,4.81,1.68.92,1.13,1.4,3.02,1.4,5.67v10.18h0ZM27.78,28.4v-3.93c-3.12.19-4.69,1.35-4.69,3.54,0,1.74.59,2.64,1.78,2.64,1.28,0,2.22-.77,2.91-2.25h0Z"/><path d="M34.67,16.93h.56c.27.03.44.03.53.03,1.22,0,2.02-.16,2.47-.48.74-.68,1.51-1.35,2.31-2.06.86-.68,1.84-1,2.94-1,1.99,0,3.56.87,4.72,2.67,1.16,1.8,1.75,4.28,1.75,7.47s-.62,5.83-1.84,7.63c-1.22,1.77-2.94,2.67-5.13,2.67-1.66,0-3-.68-4.04-2v7.66c0,.68-.21,1.23-.59,1.68-.41.45-.92.67-1.51.67-.62,0-1.13-.22-1.54-.71-.42-.45-.62-1-.62-1.65v-22.61h0ZM38.94,25.02c0,3.93,1.07,5.86,3.18,5.86s3.06-2.48,3.06-7.41-.98-7.12-2.97-7.12c-1.33,0-2.43,1.32-3.26,3.99v4.67h0Z"/><path d="M51.74,16.93h.56c.24.03.42.03.54.03,1.22,0,2.02-.16,2.46-.48.74-.68,1.51-1.35,2.28-2.06.89-.68,1.87-1,2.97-1,1.96,0,3.53.87,4.69,2.67,1.16,1.8,1.72,4.28,1.72,7.47s-.59,5.83-1.81,7.63c-1.25,1.77-2.91,2.67-5.1,2.67-1.66,0-3-.68-4.04-2v7.66c0,.68-.21,1.23-.62,1.68-.39.45-.89.67-1.51.67s-1.1-.22-1.51-.71c-.42-.45-.62-1-.62-1.65v-22.61h0ZM56.01,25.02c0,3.93,1.04,5.86,3.17,5.86s3.06-2.48,3.06-7.41-1.01-7.12-3-7.12c-1.33,0-2.4,1.32-3.23,3.99v4.67h0Z"/><path d="M82.99,23.67c0,6.63-2.47,9.98-7.33,9.98s-7.36-3.35-7.36-9.98,2.46-10.3,7.36-10.3c2.25,0,4.04.9,5.37,2.74,1.3,1.8,1.96,4.35,1.96,7.57h0ZM78.72,25.31c0-3-.09-5-.24-5.89-.39-2.54-1.34-3.83-2.79-3.83-1.13,0-1.93.64-2.41,1.96-.47,1.29-.71,3.32-.71,6.12s.24,4.64.66,5.83c.47,1.29,1.27,1.93,2.43,1.93,2.02,0,3.06-2.03,3.06-6.12h0Z"/><path d="M93.35,18.38c0-1.71-.92-2.54-2.76-2.54-1.57,0-2.34.64-2.34,2,0,.84.83,1.77,2.49,2.87.83.52,1.81,1.19,2.94,1.96,1.51,1.45,2.29,3.19,2.29,5.15,0,1.71-.57,3.12-1.69,4.19-1.13,1.06-2.58,1.58-4.39,1.58-1.6,0-2.91-.29-3.92-.9-1.01-.61-1.55-1.38-1.55-2.25,0-.55.39-.81,1.16-.81.21,0,.42,0,.56.03,1.19.87,2.29,1.32,3.29,1.32,1.69,0,2.55-.68,2.55-2.03,0-.74-.33-1.38-.98-2-.27-.29-1.13-.9-2.58-1.9-1.45-1-2.49-1.9-3.09-2.7-.71-.94-1.07-2.03-1.07-3.29,0-1.8.56-3.19,1.72-4.19,1.13-1,2.73-1.51,4.84-1.51.95,0,2.31.26,4.07.77v4.25h-1.54Z"/><path d="M106.46,38.14c-.31,2.33-2.4,3.96-4.67,3.66-2.26-.3-3.84-2.44-3.53-4.76.31-2.33,2.4-3.96,4.66-3.66,2.27.31,3.85,2.43,3.53,4.76h0Z"/><path d="M109.03,37.8c.76,0,1.36.59,1.36,1.34s-.6,1.34-1.37,1.34-1.37-.59-1.37-1.34.61-1.34,1.37-1.34h0ZM109.01,38.07c-.58,0-1.02.48-1.02,1.07s.45,1.06,1.04,1.06c.58,0,1.02-.47,1.02-1.06s-.44-1.07-1.03-1.07h0,0ZM108.81,39.83h-.31v-1.33c.12-.02.29-.04.51-.04.25,0,.36.04.45.11.08.06.14.15.14.29,0,.16-.12.27-.28.32v.02c.13.04.2.15.24.33.04.2.07.27.1.32h-.32s-.06-.16-.11-.32c-.02-.14-.11-.2-.28-.2h-.15v.53h0ZM108.82,39.08h.15c.17,0,.31-.06.31-.2,0-.12-.09-.2-.28-.2-.08,0-.14,0-.17.02v.38h0Z"/></g></svg>